# xmcd CD database file
#
# Track frame offsets:
#	150
#	18987
#	40330
#	69647
#	119165
#	165560
#	195752
#	223880
#	248710
#	269712
#
# Disc length: 3905 seconds
#
# Revision: 1
# Processed by: cddbd v1.5.1PL0 Copyright (c) Steve Scherf et al.
# Submitted via: CDex 1.51
#
DISCID=940f3f0a
DTITLE=Various Artist - Stardust
DYEAR=1991
DGENRE=Jazz
TTITLE0=スターダスト：ウイントン・マルサリス
TTITLE1=星に願いを：ウイントン・マルサリス
TTITLE2=枯葉：ウイントン・マルサリス
TTITLE3=イエスタデイズ：ブランフォード・マルサリス
TTITLE4=ドルフィン・ダンス：ハービー・ハンコック
TTITLE5=ラウンド・ミッドナイト：ハービー・ハンコック
TTITLE6=サムデイ・マイ・プリンス・ウィル・カム：小曽根 真
TTITLE7=スプリング・イズ・ヒア：小曽根 真
TTITLE8=マイ・ファニー・バレンタイン：リッチー・バイラーク
TTITLE9=ピーコックス：リッチー・バイラーク
EXTD=YEAR: 1991
EXTT0=
EXTT1=
EXTT2=
EXTT3=
EXTT4=
EXTT5=
EXTT6=
EXTT7=
EXTT8=
EXTT9=
PLAYORDER=
